<svg xmlns="http://www.w3.org/2000/svg" width="29.16" height="18.788" viewBox="0 0 29.16 18.788">
  <g id="behance" transform="translate(0 -75.597)">
    <path id="Behance-2" data-name="Behance" d="M26.233,8.255H18.667V6.374h7.567v1.88ZM14.667,15.96a4.985,4.985,0,0,1,.732,2.753,5.477,5.477,0,0,1-.835,3,5.2,5.2,0,0,1-3.45,2.421,13.051,13.051,0,0,1-2.652.252H0V5.6H9.073c2.287.036,3.908.7,4.866,2a4.777,4.777,0,0,1,.859,2.868,4.184,4.184,0,0,1-.868,2.766A4.4,4.4,0,0,1,12.5,14.3,4.184,4.184,0,0,1,14.667,15.96ZM4.333,13H8.309a3.772,3.772,0,0,0,1.986-.466,1.778,1.778,0,0,0,.763-1.653,1.68,1.68,0,0,0-1.009-1.732,7.078,7.078,0,0,0-2.217-.295h-3.5Zm7.107,5.44a2.016,2.016,0,0,0-1.2-2.013,4.719,4.719,0,0,0-1.878-.319H4.333V21.12H8.3a4.39,4.39,0,0,0,1.9-.33A2.365,2.365,0,0,0,11.44,18.444Zm17.6-3.056a17.29,17.29,0,0,1,.116,2.672h-9.8A3.215,3.215,0,0,0,20.765,20.9,3.54,3.54,0,0,0,22.7,21.4a2.729,2.729,0,0,0,2.674-1.54h3.592a4.388,4.388,0,0,1-1.3,2.432,6.542,6.542,0,0,1-5.06,1.965A7.351,7.351,0,0,1,17.865,22.6q-2.05-1.657-2.052-5.39a7.285,7.285,0,0,1,1.853-5.365,6.486,6.486,0,0,1,4.814-1.866,7.688,7.688,0,0,1,3.165.628A5.451,5.451,0,0,1,27.967,12.6,6.658,6.658,0,0,1,29.04,15.388ZM25.5,15.74a2.927,2.927,0,0,0-.941-2.127,3.063,3.063,0,0,0-2.085-.729,2.794,2.794,0,0,0-2.1.771,3.639,3.639,0,0,0-.938,2.085Z" transform="translate(0 70)" fill="#fff"/>
  </g>
</svg>
