<svg id="Group_91" data-name="Group 91" xmlns="http://www.w3.org/2000/svg" width="80" height="77" viewBox="0 0 80 77">
  <rect id="Rectangle_52" data-name="Rectangle 52" width="80" height="77" rx="17" fill="rgba(229,139,42,0.15)"/>
  <g id="cms" transform="translate(19.089 18.396)">
    <path id="Path_231" data-name="Path 231" d="M38.146,0H3.676A3.68,3.68,0,0,0,0,3.676v24.5a3.68,3.68,0,0,0,3.676,3.676H14.31l-1.634,4.9H8.658a1.225,1.225,0,0,0,0,2.45h24.5a1.225,1.225,0,0,0,0-2.45H29.145l-1.634-4.9H38.146a3.68,3.68,0,0,0,3.676-3.676V3.676A3.68,3.68,0,0,0,38.146,0ZM15.259,36.757l1.634-4.9h8.035l1.634,4.9ZM39.371,28.18a1.227,1.227,0,0,1-1.225,1.225H3.676A1.227,1.227,0,0,1,2.45,28.18V26.955h36.92ZM13.361,17.463l-1.115-1.114,1.733-1.733,1.115,1.115a1.225,1.225,0,0,0,1.489.189,8.506,8.506,0,0,1,2.185-.909,1.225,1.225,0,0,0,.918-1.186V12.252h2.45v1.572a1.225,1.225,0,0,0,.918,1.186,8.5,8.5,0,0,1,2.184.909,1.226,1.226,0,0,0,1.489-.189l1.115-1.115,1.733,1.733L28.46,17.463a1.225,1.225,0,0,0-.189,1.488,8.5,8.5,0,0,1,.909,2.185,1.225,1.225,0,0,0,1.186.918h1.572V24.5H26.913a6.126,6.126,0,1,0-12,0H9.884v-2.45h1.572a1.225,1.225,0,0,0,1.186-.918,8.5,8.5,0,0,1,.909-2.185,1.226,1.226,0,0,0-.189-1.489Zm11.225,5.817a3.689,3.689,0,0,1-.211,1.225h-6.93a3.676,3.676,0,1,1,7.141-1.225ZM39.371,24.5H34.388V20.829A1.225,1.225,0,0,0,33.163,19.6H31.27a10.991,10.991,0,0,0-.437-1.049l1.34-1.34a1.225,1.225,0,0,0,0-1.733l-3.465-3.465a1.226,1.226,0,0,0-1.733,0l-1.34,1.34a10.9,10.9,0,0,0-1.049-.436V11.027A1.225,1.225,0,0,0,23.361,9.8h-4.9a1.225,1.225,0,0,0-1.225,1.225V12.92a10.906,10.906,0,0,0-1.049.436l-1.34-1.34a1.226,1.226,0,0,0-1.733,0L9.648,15.482a1.225,1.225,0,0,0,0,1.733l1.34,1.34a10.948,10.948,0,0,0-.436,1.049H8.658a1.225,1.225,0,0,0-1.225,1.225V24.5H2.45V3.676A1.227,1.227,0,0,1,3.676,2.45h34.47a1.227,1.227,0,0,1,1.225,1.225Zm0,0" fill="#e58b2a"/>
    <path id="Path_232" data-name="Path 232" d="M364.676,60a3.676,3.676,0,1,0,3.676,3.676A3.68,3.68,0,0,0,364.676,60Zm0,4.9a1.225,1.225,0,1,1,1.225-1.225A1.227,1.227,0,0,1,364.676,64.9Zm0,0" transform="translate(-331.513 -55.099)" fill="#e58b2a"/>
  </g>
</svg>
