<svg xmlns="http://www.w3.org/2000/svg" width="90" height="90" viewBox="0 0 90 90">
  <g id="Group_91" data-name="Group 91" transform="translate(-219.942 -1684.877)">
    <rect id="Rectangle_52" data-name="Rectangle 52" width="90" height="90" rx="17" transform="translate(219.942 1684.877)" fill="rgba(229,139,42,0.15)"/>
    <path id="consult" d="M51.5,11.334A5.019,5.019,0,0,0,52.9,4.79a7.049,7.049,0,0,0-6.966-3.118,6.281,6.281,0,0,0-5.647,4.642,5.441,5.441,0,0,0,3.521,5.95,3.79,3.79,0,0,0-1.7,3.055v6.446H39.236V15.32c-.005-2.854-2.536-5.256-5.9-5.6a5.035,5.035,0,0,0,1.595-6.179A6.784,6.784,0,0,0,28.723,0a6.784,6.784,0,0,0-6.211,3.545,5.035,5.035,0,0,0,1.595,6.179c-3.361.341-5.892,2.743-5.9,5.6v6.446H15.342V15.32a3.79,3.79,0,0,0-1.7-3.055,5.441,5.441,0,0,0,3.522-5.95,6.282,6.282,0,0,0-5.647-4.642A7.049,7.049,0,0,0,4.55,4.79a5.019,5.019,0,0,0,1.4,6.545c-3.361.341-5.892,2.743-5.9,5.6V29.018a5.656,5.656,0,0,0,3.823,5.088v14.25H5.785V34.594c.314.038,6.69.065,6.69.065a.89.89,0,0,1,.956.806V48.356h7.646V33.047h6.69v13.7H23.944v1.612H33.5V46.745H29.678v-13.7h6.69v15.31h7.646V35.464a.89.89,0,0,1,.956-.806s6.377-.027,6.69-.065V48.356h1.911V34.106a5.656,5.656,0,0,0,3.823-5.088V16.931c-.005-2.854-2.536-5.256-5.9-5.6ZM42.1,7.262c0-2.225,2.14-4.029,4.779-4.029s4.779,1.8,4.779,4.029-2.14,4.029-4.779,4.029S42.106,9.486,42.1,7.262ZM30.76,11.291l-2.037,2.579-2.037-2.579ZM23.944,5.65c0-2.225,2.14-4.029,4.779-4.029S33.5,3.425,33.5,5.65s-2.14,4.029-4.779,4.029-4.775-1.8-4.779-4.029ZM20.121,15.32c.008-2.063,1.866-3.786,4.3-3.988l4.3,5.438,4.3-5.441c2.436.2,4.294,1.927,4.3,3.99v6.446H33.5V26.6H23.944V21.766H20.121ZM5.785,7.262c0-2.225,2.14-4.029,4.779-4.029s4.779,1.8,4.779,4.029-2.14,4.029-4.779,4.029S5.788,9.486,5.785,7.262Zm13.38,39.483H15.342V35.464a2.671,2.671,0,0,0-2.867-2.417H6.741c-2.638,0-4.775-1.8-4.779-4.029V16.931c0-2.224,2.141-4.026,4.779-4.029h3.823a2.671,2.671,0,0,1,2.867,2.417v8.058h8.6V26.6H10.564a.89.89,0,0,1-.956-.806V16.125H7.7v9.669a2.671,2.671,0,0,0,2.867,2.417h3.823c2.638,0,4.775,1.8,4.779,4.029ZM21,31.435a5.376,5.376,0,0,0-1.941-3.223H38.386a5.376,5.376,0,0,0-1.941,3.223Zm34.483-2.417c0,2.224-2.141,4.026-4.779,4.029H44.97A2.671,2.671,0,0,0,42.1,35.464V46.745H38.28v-14.5c0-2.224,2.141-4.026,4.779-4.029h3.823a2.671,2.671,0,0,0,2.867-2.417V16.125H47.838v9.669a.89.89,0,0,1-.956.806H35.413V23.377h8.6V15.32A2.671,2.671,0,0,1,46.882,12.9H50.7c2.638,0,4.775,1.8,4.779,4.029Zm0,0" transform="translate(236.674 1705.837)" fill="#e58b2a"/>
  </g>
</svg>
