<svg id="Group_61" data-name="Group 61" xmlns="http://www.w3.org/2000/svg" width="59" height="53" viewBox="0 0 59 53">
  <rect id="Rectangle_38" data-name="Rectangle 38" width="59" height="53" rx="11" fill="rgba(229,139,42,0.13)"/>
  <g id="rocket" transform="translate(13.111 10.127)">
    <path id="Path_131" data-name="Path 131" d="M33.6,1.018a.989.989,0,0,0-.874-.874C24.9-.725,18.234,2.4,12.794,8a40.79,40.79,0,0,0-4.06,4.936,7.85,7.85,0,0,0-5.647,2.337l-2.8,2.8a.989.989,0,0,0,.955,1.654A13.769,13.769,0,0,1,3.962,19.3a7.636,7.636,0,0,1,.934.008c-.617,1.187-1.09,2.181-1.247,2.43a.989.989,0,0,0,.138,1.226L5.4,24.587C3.049,27.8,3.01,29.444,3.018,29.677a.993.993,0,0,0,1.04.956c.552,0,2.135-.234,5.017-2.375l1.7,1.7a.989.989,0,0,0,1.234.133c.266-.171,1.2-.624,2.324-1.211a24.152,24.152,0,0,1-.341,3.73.989.989,0,0,0,1.677.844l2.8-2.8a7.809,7.809,0,0,0,2.217-5.593,40.826,40.826,0,0,0,5.194-4.27c5.547-5.439,8.58-12.058,7.722-19.778ZM31.71,2.035a19.744,19.744,0,0,1-.5,6.2,8.707,8.707,0,0,1-3.484-2.212,8.7,8.7,0,0,1-2.217-3.5,19.934,19.934,0,0,1,6.2-.488ZM3.833,17.329l.652-.653a6.243,6.243,0,0,1,2.836-1.613c-.533.846-1.008,1.654-1.428,2.4a7.941,7.941,0,0,0-2.061-.135ZM5.7,22.09c.214-.422.473-.952.948-1.849l1.3,1.3q-.726.779-1.315,1.481Zm4.835-.378a2.924,2.924,0,0,1,2.269-.87,2.957,2.957,0,0,1-.871,2.269,25.574,25.574,0,0,1-6.432,5.052,25.329,25.329,0,0,1,5.033-6.45Zm1.112,6.325-1.02-1.02q.7-.593,1.477-1.32l1.385,1.385c-.911.486-1.291.669-1.842.954Zm5.419,1.224-.791.792a9.649,9.649,0,0,0-.049-2.2c.727-.409,1.517-.874,2.344-1.393a5.831,5.831,0,0,1-1.5,2.8Zm-1.777-3.175L13.52,24.313c1.312-1.443,1.263-2.834,1.263-4.459a.989.989,0,0,0-.989-.989c-1.518,0-2.979-.081-4.459,1.263L7.643,18.436C12.265,10.33,17.608,5.2,23.612,3.085a10.648,10.648,0,0,0,2.715,4.334,10.654,10.654,0,0,0,4.314,2.709c-2.126,5.97-7.256,11.31-15.348,15.958Zm0,0" transform="translate(-0.001 0)" fill="#e58b2a"/>
    <path id="Path_132" data-name="Path 132" d="M258.63,113.28a4.944,4.944,0,1,0,0,6.991A4.95,4.95,0,0,0,258.63,113.28Zm-1.4,5.593a2.966,2.966,0,1,1,0-4.195A2.97,2.97,0,0,1,257.232,118.873Zm0,0" transform="translate(-233.703 -104.463)" fill="#e58b2a"/>
  </g>
</svg>
