<svg xmlns="http://www.w3.org/2000/svg" width="90" height="90" viewBox="0 0 90 90">
  <g id="Group_91" data-name="Group 91" transform="translate(-220.095 -1685.276)">
    <rect id="Rectangle_52" data-name="Rectangle 52" width="90" height="90" rx="17" transform="translate(220.095 1685.276)" fill="rgba(229,139,42,0.15)"/>
    <g id="customer" transform="translate(237.616 1700.841)">
      <g id="Group_90" data-name="Group 90" transform="translate(0 30.038)">
        <g id="Group_89" data-name="Group 89">
          <path id="Path_166" data-name="Path 166" d="M53.239,237.744a4.828,4.828,0,0,0-6.648.4l-4.732,5.08a4.839,4.839,0,0,0-4.613-3.4H28.8c-.641,0-.855-.245-1.969-1.1a11.294,11.294,0,0,0-14.85.035l-3.1,2.733a4.81,4.81,0,0,0-4.428-.056l-3.56,1.78a1.611,1.611,0,0,0-.72,2.161L9.83,264.7a1.611,1.611,0,0,0,2.161.72l3.56-1.781a4.826,4.826,0,0,0,2.668-4.49H37.245a11.324,11.324,0,0,0,9.016-4.508l7.729-10.306A4.817,4.817,0,0,0,53.239,237.744ZM14.11,260.757l-2.12,1.06L3.77,245.378l2.121-1.06a1.609,1.609,0,0,1,2.16.72l6.78,13.56A1.61,1.61,0,0,1,14.11,260.757Zm37.3-18.356-7.729,10.306a8.087,8.087,0,0,1-6.44,3.22H17.1L11.062,243.86l3.047-2.682a8.07,8.07,0,0,1,10.637,0c1.786,1.572,2.9,1.87,4.054,1.87h8.445a1.61,1.61,0,0,1,0,3.22H29.022a1.61,1.61,0,1,0,0,3.22h9.3a4.844,4.844,0,0,0,3.534-1.538l7.088-7.609a1.61,1.61,0,0,1,2.468,2.061Z" transform="translate(0 -235.959)" fill="#e58b2a"/>
        </g>
      </g>
      <g id="Group_92" data-name="Group 92" transform="translate(12.727 0)">
        <g id="Path_175" data-name="Path 175" transform="translate(5.514)" fill="none">
          <path d="M0,0H19.632V15.012H0Z" stroke="none"/>
          <path d="M 1.000003814697266 0.9999990463256836 L 1.000003814697266 14.01249980926514 L 18.6317253112793 14.01249980926514 L 18.6317253112793 0.9999990463256836 L 1.000003814697266 0.9999990463256836 M 3.814697265625e-06 -9.5367431640625e-07 L 19.6317253112793 -9.5367431640625e-07 L 19.6317253112793 15.01249980926514 L 3.814697265625e-06 15.01249980926514 L 3.814697265625e-06 -9.5367431640625e-07 Z" stroke="none" fill="#e58b2a"/>
        </g>
        <g id="Path_172" data-name="Path 172" transform="translate(5.682 16.177)" fill="none">
          <path d="M-.293,0H18.99l5.176,8.6H-5.682Z" stroke="none"/>
          <path d="M 0.2600231170654297 1.000004291534424 L -3.874872207641602 7.59844446182251 L 22.39654731750488 7.59844446182251 L 18.42484855651855 1.000004291534424 L 0.2600231170654297 1.000004291534424 M -0.2934494018554688 4.76837158203125e-06 L 18.99011039733887 4.76837158203125e-06 L 24.16563987731934 8.598443984985352 L -5.681638717651367 8.598443984985352 L -0.2934494018554688 4.76837158203125e-06 Z" stroke="none" fill="#e58b2a"/>
        </g>
        <g id="Rectangle_54" data-name="Rectangle 54" transform="translate(10.752 20.948)" fill="none" stroke="#e58b2a" stroke-width="0.5">
          <rect width="8" height="2" rx="1" stroke="none"/>
          <rect x="0.25" y="0.25" width="7.5" height="1.5" rx="0.75" fill="none"/>
        </g>
        <g id="Union_2" data-name="Union 2" transform="translate(10.752 2.948)" fill="none">
          <path d="M6.471,9.166q0-.036,0-.071L2.867,6.932a1.715,1.715,0,0,1-1.1.4A1.8,1.8,0,0,1,0,5.5,1.8,1.8,0,0,1,1.765,3.666a1.7,1.7,0,0,1,.817.208l3.9-2.246A1.762,1.762,0,0,1,10,1.834,1.8,1.8,0,0,1,8.235,3.666,1.712,1.712,0,0,1,7.2,3.314L3.71,5.322l3.7,2.222a1.7,1.7,0,0,1,.821-.21A1.835,1.835,0,1,1,6.471,9.166Z" stroke="none"/>
          <path d="M 8.23490047454834 10.5 C 8.932479858398438 10.5 9.5 9.901700019836426 9.5 9.166299819946289 C 9.5 8.431500434875488 8.932479858398438 7.833700180053711 8.23490047454834 7.833700180053711 C 8.029939651489258 7.833700180053711 7.834569931030273 7.883709907531738 7.654220104217529 7.982339859008789 L 7.402820110321045 8.119830131530762 L 7.157100200653076 7.972430229187012 L 3.452769994735718 5.750309944152832 L 2.723400115966797 5.312779903411865 L 3.460429906845093 4.888269901275635 L 6.945549964904785 2.88090991973877 L 7.233160018920898 2.715250015258789 L 7.497489929199219 2.915980100631714 C 7.713129997253418 3.079740047454834 7.968120098114014 3.166300058364868 8.23490047454834 3.166300058364868 C 8.932479858398438 3.166300058364868 9.5 2.56850004196167 9.5 1.833699941635132 C 9.5 1.098299980163574 8.932479858398438 0.5 8.23490047454834 0.5 C 7.59099006652832 0.5 7.051070213317871 1.008090019226074 6.978990077972412 1.681859970092773 L 6.951920032501221 1.934960007667542 L 6.731339931488037 2.061969995498657 L 2.831569910049438 4.307630062103271 L 2.588989973068237 4.447319984436035 L 2.343110084533691 4.313549995422363 C 2.163520097732544 4.215839862823486 1.969050049781799 4.166299819946289 1.765100002288818 4.166299819946289 C 1.067520022392273 4.166299819946289 0.5 4.764599800109863 0.5 5.5 C 0.5 6.235400199890137 1.067520022392273 6.833700180053711 1.765100002288818 6.833700180053711 C 2.05174994468689 6.833700180053711 2.32204008102417 6.734819889068604 2.546760082244873 6.547760009765625 L 2.819519996643066 6.320710182189941 L 3.123859882354736 6.503270149230957 L 6.729440212249756 8.666150093078613 L 6.982860088348389 8.818169593811035 L 6.971889972686768 9.113490104675293 C 6.971230030059814 9.131010055541992 6.970920085906982 9.148619651794434 6.970920085906982 9.166299819946289 C 6.970920085906982 9.901700019836426 7.53794002532959 10.5 8.23490047454834 10.5 M 8.23490047454834 11 C 7.260660171508789 11 6.470920085906982 10.17940044403076 6.470920085906982 9.166299819946289 C 6.470920085906982 9.142399787902832 6.471350193023682 9.118599891662598 6.472229957580566 9.09492015838623 L 2.866650104522705 6.932040214538574 C 2.564810037612915 7.183300018310547 2.181819915771484 7.333700180053711 1.765100002288818 7.333700180053711 C 0.7908700108528137 7.333700180053711 0 6.51200008392334 0 5.5 C 0 4.486899852752686 0.7908700108528137 3.666300058364868 1.765100002288818 3.666300058364868 C 2.059920072555542 3.666300058364868 2.337800025939941 3.741450071334839 2.582060098648071 3.874340057373047 L 6.48183012008667 1.628679990768433 C 6.579870223999023 0.7121800184249878 7.327320098876953 -8.881784197001252e-16 8.23490047454834 -8.881784197001252e-16 C 9.209139823913574 -8.881784197001252e-16 10 0.8205999732017517 10 1.833699941635132 C 10 2.845700025558472 9.209139823913574 3.666300058364868 8.23490047454834 3.666300058364868 C 7.846069812774658 3.666300058364868 7.486670017242432 3.535599946975708 7.195099830627441 3.31417989730835 L 3.709980010986328 5.321539878845215 L 7.414309978485107 7.543660163879395 C 7.659420013427734 7.409609794616699 7.938650131225586 7.333700180053711 8.23490047454834 7.333700180053711 C 9.209139823913574 7.333700180053711 10 8.154299736022949 10 9.166299819946289 C 10 10.17940044403076 9.209139823913574 11 8.23490047454834 11 Z" stroke="none" fill="#e58b2a"/>
        </g>
        <ellipse id="Ellipse_17" data-name="Ellipse 17" cx="0.5" cy="1" rx="0.5" ry="1" transform="translate(10.752 6.948)" fill="none"/>
      </g>
    </g>
  </g>
</svg>
