<svg id="linkedin" xmlns="http://www.w3.org/2000/svg" width="26.568" height="26.568" viewBox="0 0 26.568 26.568">
  <path id="Path_112" data-name="Path 112" d="M25.653,25.757h.007V16.013c0-4.767-1.026-8.439-6.6-8.439a5.785,5.785,0,0,0-5.211,2.864h-.077V8.019H8.489V25.756h5.5V16.973c0-2.312.438-4.549,3.3-4.549,2.822,0,2.864,2.639,2.864,4.7v8.636Z" transform="translate(0.908 0.81)" fill="#fff"/>
  <path id="Path_113" data-name="Path 113" d="M.4,7.977H5.9V25.714H.4Z" transform="translate(0.042 0.853)" fill="#fff"/>
  <path id="Path_114" data-name="Path 114" d="M3.19,0a3.205,3.205,0,1,0,3.19,3.19A3.191,3.191,0,0,0,3.19,0Z" fill="#fff"/>
</svg>
