<svg xmlns="http://www.w3.org/2000/svg" xmlns:xlink="http://www.w3.org/1999/xlink" width="263.728" height="203.625" viewBox="0 0 263.728 203.625">
  <defs>
    <linearGradient id="linear-gradient" x1="1.022" y1="0.504" x2="0.564" y2="0.502" gradientUnits="objectBoundingBox">
      <stop offset="0" stop-color="#a6550e"/>
      <stop offset="1" stop-color="#bdbfc1" stop-opacity="0"/>
    </linearGradient>
  </defs>
  <g id="Logo" transform="translate(-3.507 -2.334)">
    <g id="Layer_1" data-name="Layer 1" transform="translate(6.7 2.334)">
      <text id="PaTeXs" transform="translate(1.807 166.416)" fill="#fff" stroke="#fff" stroke-miterlimit="10" stroke-width="5" font-size="72" font-family="Arual"><tspan x="0" y="0">PaTeXs</tspan></text>
      <path id="Path_38" data-name="Path 38" d="M15.7,179.273H259.776c9.816,0,9.826-7.533,0-7.533H15.7c-9.816,0-9.826,7.533,0,7.533Z" transform="translate(-6.607 7.252)" fill="#fff"/>
      <path id="Path_39" data-name="Path 39" d="M71.35,97.207c-.317-5.156,2.884-8.527,6.466-11.622,4.765-4.068,9.626-8.02,14.475-11.992,3.656-2.99,7.4-5.875,11.031-8.9,2.842-2.367,5.589-4.85,8.336-7.322,1.057-.972,1.057-1.807-.222-2.832-8.03-6.53-15.986-13.186-23.953-19.822-3.614-3.011-7.216-6.054-10.83-9.066-4.226-3.5-6.413-7.914-5.1-13.324a11.506,11.506,0,0,1,3.793-6.139c6.583-4.829,10.9-4.86,17.423.37,7.185,5.758,14.3,11.622,21.417,17.455,4.353,3.582,8.664,7.238,12.975,10.872,4.67,3.931,9.287,7.935,14,11.813a14.116,14.116,0,0,1,4.67,8.875c.581,3.423-1.057,6.762-3.349,9.076-13.292,13.387-29.32,24.883-43.806,37.065-3.561,2.99-7.259,6.065-11.728,7.4A12.074,12.074,0,0,1,71.35,97.207Z" transform="translate(-3.052 -2.319)" fill="#e58b2a"/>
      <g id="Group_16" data-name="Group 16" transform="translate(68.19)">
        <path id="Path_40" data-name="Path 40" d="M71.42,97.011c-.317-5.156,2.884-8.527,6.466-11.622,4.765-4.068,9.626-8.02,14.475-11.982,3.656-2.99,7.4-5.875,11.02-8.9,2.853-2.367,5.6-4.85,8.347-7.333,1.057-.972,1.057-1.807-.222-2.832-8.03-6.561-15.986-13.218-23.953-19.853-3.624-3.011-7.216-6.044-10.83-9.066-4.226-3.5-6.424-7.9-5.1-13.313A11.39,11.39,0,0,1,75.4,5.922c6.593-4.829,10.915-4.86,17.423.37,7.2,5.758,14.306,11.622,21.428,17.455,4.353,3.582,8.664,7.227,12.975,10.862,4.67,3.941,9.277,7.935,13.989,11.823A14.063,14.063,0,0,1,145.9,55.3c.581,3.434-1.057,6.762-3.349,9.087-13.292,13.5-29.3,24.957-43.806,37.129-3.561,3-7.259,6.075-11.728,7.4a12.013,12.013,0,0,1-15.6-11.9Z" transform="translate(-71.238 -2.334)" fill="url(#linear-gradient)"/>
      </g>
      <path id="Path_41" data-name="Path 41" d="M194.245,97.207c.317-5.156-2.884-8.527-6.466-11.622-4.765-4.068-9.626-8.019-14.475-11.992-3.656-2.99-7.4-5.875-11.02-8.9-2.842-2.367-5.6-4.85-8.347-7.322-1.057-.972-1.057-1.807.222-2.832,8.03-6.53,15.986-13.186,23.974-19.822,3.624-3.011,7.217-6.054,10.83-9.066,4.226-3.5,6.424-7.914,5.1-13.324a11.432,11.432,0,0,0-3.8-6.139c-6.593-4.829-10.9-4.86-17.423.37-7.185,5.758-14.306,11.622-21.428,17.455-4.353,3.582-8.653,7.238-12.975,10.872-4.67,3.931-9.277,7.935-13.989,11.813a14.084,14.084,0,0,0-4.681,8.875c-.581,3.423,1.057,6.762,3.349,9.076,13.292,13.387,29.331,24.883,43.806,37.065,3.561,2.99,7.259,6.065,11.739,7.4a12,12,0,0,0,15.585-11.908Z" transform="translate(-0.308 -2.319)" fill="#e58b2a"/>
      <text id="Partner_Technology_Experts-we_got_the_x" data-name="Partner Technology Experts-we got the x" transform="translate(0 200.625)" fill="#e58b2a" font-size="14" font-family="GeosansLight"><tspan x="0" y="0">Partner Technology Experts</tspan><tspan y="0" fill="#fff">-we got the x</tspan></text>
    </g>
  </g>
</svg>
