<svg xmlns="http://www.w3.org/2000/svg" width="59" height="56" viewBox="0 0 59 56">
  <g id="Group_52" data-name="Group 52" transform="translate(-355.955 -1378.248)">
    <rect id="Rectangle_38" data-name="Rectangle 38" width="59" height="56" rx="11" transform="translate(355.955 1378.248)" fill="rgba(229,139,42,0.13)"/>
    <path id="target" d="M32.681,62.725l2.9-3.863a1.048,1.048,0,0,0-.839-1.678H29.125a1.049,1.049,0,0,0-.839.419l-.111.148a14.525,14.525,0,1,0,0,9.947l.111.148a1.049,1.049,0,0,0,.839.419H34.74a1.048,1.048,0,0,0,.839-1.678Zm-6.067,2.893a12.428,12.428,0,1,1,0-5.785l-1.131,1.508-.252.336H24.5a10.033,10.033,0,1,0,0,2.1h.728l.252.336Zm-6.649-3.941a5.541,5.541,0,1,0,0,2.1h2.427a7.936,7.936,0,1,1,0-2.1Zm-5.44,2.1h3.28a3.444,3.444,0,1,1,0-2.1h-3.28a1.048,1.048,0,1,0,0,2.1Zm16.007-.419,2.111,2.815H29.649l-2.583-3.444,2.583-3.444h2.994L30.532,62.1A1.048,1.048,0,0,0,30.532,63.354Z" transform="translate(370.715 1343.14)" fill="#e58b2a"/>
  </g>
</svg>
