<svg id="Group_91" data-name="Group 91" xmlns="http://www.w3.org/2000/svg" width="80" height="77" viewBox="0 0 80 77">
  <rect id="Rectangle_52" data-name="Rectangle 52" width="80" height="77" rx="17" fill="rgba(229,139,42,0.15)"/>
  <g id="mobile" transform="translate(17.522 13.64)">
    <path id="Path_225" data-name="Path 225" d="M84.727,232.453a4.227,4.227,0,1,0-4.227-4.227A4.227,4.227,0,0,0,84.727,232.453Zm0-6.763a2.536,2.536,0,1,1-2.536,2.536A2.536,2.536,0,0,1,84.727,225.691Zm0,0" transform="translate(-71.547 -200.331)" fill="#e58b2a"/>
    <path id="Path_226" data-name="Path 226" d="M44.457,21.133h-2.33l1.648-1.649L40.188,15.9,38.54,17.545v-2.33H36V4.227A4.232,4.232,0,0,0,31.777,0H9.8A4.232,4.232,0,0,0,5.572,4.227V17.571L1.824,21.319,4.665,24.16c-.05.115-.1.232-.147.354H.5v6.763H4.518c.048.122.1.239.147.354L1.824,34.472,5.572,38.22v8.272A4.232,4.232,0,0,0,9.8,50.72H31.777A4.232,4.232,0,0,0,36,46.493V32.122H38.54v-2.33l1.649,1.648,3.587-3.587-1.648-1.649h2.33ZM9.8,1.691H31.777a2.536,2.536,0,0,1,2.536,2.536v.845H7.263V4.227A2.536,2.536,0,0,1,9.8,1.691ZM6.737,31.953,6.432,31.4a6.955,6.955,0,0,1-.507-1.221l-.193-.59H2.191V26.205H5.732l.189-.587A6.972,6.972,0,0,1,6.428,24.4l.305-.555L4.214,21.319,6.6,18.93l2.519,2.522.555-.305a6.972,6.972,0,0,1,1.221-.511l.59-.189V16.906h3.381v3.541l.587.189a6.963,6.963,0,0,1,1.222.511l.555.305,2.522-2.522,2.384,2.389-2.517,2.519.305.555a6.972,6.972,0,0,1,.511,1.221l.189.587h3.541v3.381H20.628l-.189.587a6.946,6.946,0,0,1-.511,1.221l-.305.556,2.517,2.526-2.384,2.389-2.519-2.522-.555.305a6.971,6.971,0,0,1-1.221.511l-.59.189v3.541H11.489V35.344l-.587-.189a6.962,6.962,0,0,1-1.222-.511l-.555-.305L6.6,36.861,4.214,34.472Zm25.04,17.076H9.8a2.536,2.536,0,0,1-2.536-2.536V43.957h27.05v2.536A2.536,2.536,0,0,1,31.777,49.029Zm2.536-6.763H7.263V38.592l2.182-2.181c.115.05.232.1.354.147v4.018h6.763V36.558c.122-.048.239-.1.354-.147l2.841,2.841,4.78-4.78L21.7,31.631c.05-.115.1-.232.146-.354H25.86V24.514H21.841c-.047-.122-.1-.24-.146-.354l2.841-2.841-4.78-4.78-2.841,2.841c-.115-.05-.232-.1-.354-.147V15.216H9.8v4.018c-.122.048-.239.1-.354.147L7.263,17.2V6.763h27.05v8.453h-.845v2.33L31.819,15.9l-3.587,3.587,1.648,1.649H27.55v5.072h2.33l-1.648,1.649,3.587,3.587,1.649-1.648v2.33h.845Zm8.453-17.752H40.153l-.182.6a1.861,1.861,0,0,1-.143.343l-.288.55,1.845,1.845-1.2,1.2-1.845-1.845-.551.287a1.932,1.932,0,0,1-.338.142l-.605.181v2.616H35.158V27.816l-.6-.181a1.928,1.928,0,0,1-.338-.142l-.551-.287-1.847,1.845-1.2-1.2,1.845-1.845-.288-.55a1.862,1.862,0,0,1-.143-.343l-.182-.6H29.241V22.824h2.614l.182-.6a1.862,1.862,0,0,1,.143-.343l.288-.55-1.845-1.845,1.2-1.2,1.845,1.845.551-.287a1.931,1.931,0,0,1,.338-.142l.605-.181V16.907h1.691v2.616l.6.181a1.927,1.927,0,0,1,.338.142l.551.287,1.844-1.845,1.2,1.2L39.537,21.33l.288.55a1.921,1.921,0,0,1,.143.343l.182.6h2.616Zm0,0" transform="translate(0)" fill="#e58b2a"/>
    <path id="Path_227" data-name="Path 227" d="M315.036,200a2.536,2.536,0,1,0,2.536,2.536A2.536,2.536,0,0,0,315.036,200Zm0,3.381a.845.845,0,1,1,.845-.845A.845.845,0,0,1,315.036,203.381Zm0,0" transform="translate(-279.032 -178.867)" fill="#e58b2a"/>
    <path id="Path_228" data-name="Path 228" d="M199.278,79.974l1.282,1.282,1.2-1.2-1.282-1.282a3.313,3.313,0,0,0,.359-.861h1.811V76.227h-1.811a3.313,3.313,0,0,0-.359-.861l1.282-1.282-1.2-1.2-1.282,1.282a3.313,3.313,0,0,0-.861-.359V72h-1.691v1.811a3.313,3.313,0,0,0-.861.359l-1.282-1.282-1.2,1.2,1.282,1.282a3.312,3.312,0,0,0-.359.861H192.5v1.691h1.811a3.313,3.313,0,0,0,.359.861l-1.282,1.282,1.2,1.2,1.282-1.282a3.312,3.312,0,0,0,.861.359v1.811h1.691V80.333A3.312,3.312,0,0,0,199.278,79.974Zm-3.4-2.9a1.691,1.691,0,1,1,1.691,1.691A1.691,1.691,0,0,1,195.881,77.072Zm0,0" transform="translate(-171.712 -64.392)" fill="#e58b2a"/>
    <path id="Path_229" data-name="Path 229" d="M173.572,418.536a2.536,2.536,0,1,0-2.536,2.536A2.536,2.536,0,0,0,173.572,418.536Zm-2.536.845a.845.845,0,1,1,.845-.845A.845.845,0,0,1,171.036,419.381Zm0,0" transform="translate(-150.248 -372.043)" fill="#e58b2a"/>
    <path id="Path_230" data-name="Path 230" d="M176.5,24h3.381v1.691H176.5Zm0,0" transform="translate(-157.403 -21.464)" fill="#e58b2a"/>
  </g>
</svg>
