<svg xmlns="http://www.w3.org/2000/svg" width="90" height="90" viewBox="0 0 90 90">
  <g id="Group_91" data-name="Group 91" transform="translate(0 -1.204)">
    <rect id="Rectangle_52" data-name="Rectangle 52" width="90" height="90" rx="12" transform="translate(0 1.204)" fill="rgba(229,139,42,0.15)"/>
    <g id="guide" transform="translate(26.95 24.425)">
      <path id="Path_214" data-name="Path 214" d="M36.894,42.541H5.874A4.879,4.879,0,0,1,1,37.666V4.874A4.879,4.879,0,0,1,5.874,0H33.349a1.33,1.33,0,0,1,1.329,1.329V7.09h2.216A1.33,1.33,0,0,1,38.223,8.42V41.211A1.33,1.33,0,0,1,36.894,42.541ZM3.659,9.215V37.666a2.219,2.219,0,0,0,2.216,2.216h29.69V9.749H5.874a4.827,4.827,0,0,1-2.216-.534ZM5.874,2.659a2.216,2.216,0,1,0,0,4.431H32.019V2.659Z" transform="translate(-1)" fill="#e58b2a"/>
      <path id="Path_215" data-name="Path 215" d="M11.4,22.272a1.321,1.321,0,0,1-.851-.308L5.229,17.532a1.328,1.328,0,0,1,0-2.042l5.318-4.431a1.33,1.33,0,1,1,1.7,2.042l-4.093,3.41,4.093,3.41a1.329,1.329,0,0,1-.853,2.35Z" transform="translate(1.897 8.304)" fill="#e58b2a"/>
      <path id="Path_216" data-name="Path 216" d="M15.08,22.272a1.329,1.329,0,0,1-.851-2.35l4.091-3.41L14.227,13.1a1.33,1.33,0,1,1,1.7-2.042l5.318,4.431a1.328,1.328,0,0,1,0,2.042l-5.318,4.431A1.321,1.321,0,0,1,15.08,22.272Z" transform="translate(8.849 8.304)" fill="#e58b2a"/>
      <path id="Path_217" data-name="Path 217" d="M11.079,24.817a1.316,1.316,0,0,1-.365-.051A1.329,1.329,0,0,1,9.8,23.122l3.545-12.408a1.329,1.329,0,1,1,2.556.73L12.357,23.853a1.328,1.328,0,0,1-1.278.964Z" transform="translate(5.76 7.532)" fill="#e58b2a"/>
    </g>
  </g>
</svg>
