<svg xmlns="http://www.w3.org/2000/svg" width="52" height="52" viewBox="0 0 52 52">
  <g id="Group_184" data-name="Group 184" transform="translate(-216 -381)">
    <rect id="Rectangle_52" data-name="Rectangle 52" width="52" height="52" rx="10" transform="translate(216 381)" fill="rgba(229,139,42,0.15)"/>
    <g id="call" transform="translate(230.489 395.489)">
      <g id="Group_185" data-name="Group 185">
        <path id="Path_238" data-name="Path 238" d="M21.176,15.112a13.072,13.072,0,0,1-4.105-.654,1.807,1.807,0,0,0-1.825.385L12.657,16.8a14.306,14.306,0,0,1-6.432-6.431l1.9-2.521a1.861,1.861,0,0,0,.458-1.885,13.092,13.092,0,0,1-.656-4.112A1.849,1.849,0,0,0,6.075,0H1.847A1.85,1.85,0,0,0,0,1.847,21.2,21.2,0,0,0,21.176,23.023a1.85,1.85,0,0,0,1.847-1.847V16.959A1.85,1.85,0,0,0,21.176,15.112Zm.568,6.064a.569.569,0,0,1-.568.568,19.919,19.919,0,0,1-19.9-19.9.569.569,0,0,1,.568-.568H6.076a.569.569,0,0,1,.568.568,14.342,14.342,0,0,0,.718,4.5.637.637,0,0,1-.2.656l-2.2,2.911a.64.64,0,0,0-.06.675,15.876,15.876,0,0,0,7.526,7.527.637.637,0,0,0,.677-.059l2.978-2.256a.564.564,0,0,1,.58-.135,14.361,14.361,0,0,0,4.513.721.569.569,0,0,1,.568.568Z" fill="#e58b2a"/>
      </g>
    </g>
  </g>
</svg>
