<svg id="Group_91" data-name="Group 91" xmlns="http://www.w3.org/2000/svg" width="80" height="77" viewBox="0 0 80 77">
  <rect id="Rectangle_52" data-name="Rectangle 52" width="80" height="77" rx="17" fill="rgba(229,139,42,0.15)"/>
  <g id="Group_102" data-name="Group 102" transform="translate(18.397 15.421)">
    <g id="Out_line" data-name="Out line" transform="translate(9.81)">
      <path id="Path_222" data-name="Path 222" d="M208.753,105.505h.753a.753.753,0,0,0,0-1.505h-.753a.753.753,0,1,0,0,1.505Z" transform="translate(-195.205 -95.721)" fill="#e58b2a"/>
      <path id="Path_223" data-name="Path 223" d="M80.279,61.157A28.359,28.359,0,0,0,92.093,58.6l2.7-1.227a10.948,10.948,0,0,0,4.3-1.175v4.961H100.6V55.267a11.181,11.181,0,0,0,1.285-1.1,10.959,10.959,0,0,0,3.231-7.8V43.941a9.784,9.784,0,0,0-6.15-9.084l-1.82-.728-2.566-1.283V28.452a6.585,6.585,0,0,0,2.258-4.965V19.71A3.714,3.714,0,0,0,93.127,16H83.666a3.386,3.386,0,0,0-1.882,6.2v1.933l-1.451,3.629a.753.753,0,0,0,.362.953l1.176.588.68,3.4a.753.753,0,0,0,.4.526l.159.079-1.616.808-2.805.935A9.772,9.772,0,0,0,72,44.336v8.543a8.288,8.288,0,0,0,8.279,8.279ZM103.61,43.941v2.423a9.526,9.526,0,0,1-9.526,9.526H85.547V52.126h7.526a4.521,4.521,0,0,0,4.516-4.516V45l1.923-1.282a.753.753,0,0,0,.335-.626V39.331a.753.753,0,0,0-.335-.626L97.254,37.2a.75.75,0,0,0-1,.148l.909-1.59,1.241.5A8.239,8.239,0,0,1,103.61,43.941ZM84.042,55.825a4.526,4.526,0,0,1-3.7-3.7h3.7ZM90.661,38.16l.545.509-.055.037a.753.753,0,0,0-.335.626v.661l-1.558,1.125.72-2.161Zm4.67,4.182a2.26,2.26,0,0,0,2.258-2.258v-.852l.753.5v2.958l-1.923,1.282a.753.753,0,0,0-.335.626v2.258H94.579V44.6a.753.753,0,0,0-.335-.626l-1.923-1.282V39.734l.753-.5v.852A2.26,2.26,0,0,0,95.331,42.342ZM94.6,40.25l1.535-2.686a.75.75,0,0,0-.049.261v2.258a.752.752,0,0,1-1.486.166Zm-.019,8.113h1.41a3.016,3.016,0,0,1-2.915,2.258h-.753A2.26,2.26,0,0,1,94.579,48.363ZM87.805,38.138l.644.644L87.609,41.3l-1.114-1.856Zm.753,5.342,2.258-1.63v1.245a.753.753,0,0,0,.335.626L93.073,45v2.17a3.768,3.768,0,0,0-2.258,3.448H88.558Zm5.913-6.041a.752.752,0,0,0-1.062-.238l-.916.61-.852-.795,2.374-2.769,1.773.887Zm-.707-10.28a4.391,4.391,0,0,0,.063-.732,2.152,2.152,0,0,0-3.01-1.969V22.774h4.516v.714a5.08,5.08,0,0,1-1.569,3.672Zm1.568-7.449v1.559H87.993a5.381,5.381,0,0,1,5.134-3.763A2.207,2.207,0,0,1,95.331,19.71Zm-11.666-2.2h5.162a6.889,6.889,0,0,0-2.4,3.763H83.666a1.882,1.882,0,1,1,0-3.763Zm-.792,10.616-.886-.443,1.248-3.12a.753.753,0,0,0,.054-.28V22.752a3.4,3.4,0,0,0,.376.021H89.31v3.763a.753.753,0,0,0,1.426.337l.367-.734a.643.643,0,0,1,1.218.287,2.916,2.916,0,0,1-.306,1.3L91.3,29.157a.706.706,0,0,1-1.13.183l-.326-.326-1.064,1.064.326.326a2.211,2.211,0,0,0,3.541-.575l.13-.261c.1-.042.2-.085.3-.132v3.594l-3.806,4.44-2.215-2.215V34.063a.753.753,0,0,0,.532-.22l.753-.753a.753.753,0,1,0-1.064-1.064l-.532.532H84.972l-1.017-.509-.68-3.4a.753.753,0,0,0-.4-.526Zm2.1,5.942h.575v1.505a.753.753,0,0,0,.22.532l.973.973L85.015,38.8l-.056.056-2.127-3.722ZM73.505,44.336a8.268,8.268,0,0,1,5.661-7.854l2.271-.757,2.7,4.733a.753.753,0,0,0,1.186.159l.071-.071L87.052,43.3v7.318H80.279V42.342H78.774v9.031a6.028,6.028,0,0,0,6.021,6.021h6.3a26.852,26.852,0,0,1-10.818,2.258,6.781,6.781,0,0,1-6.774-6.774Z" transform="translate(-72 -16)" fill="#e58b2a"/>
    </g>
    <g id="success" transform="translate(0 2.608)">
      <path id="Path_224" data-name="Path 224" d="M7.27,0a7.27,7.27,0,1,0,7.27,7.27A7.279,7.279,0,0,0,7.27,0Zm4.053,4.846L6.849,9.879a.56.56,0,0,1-.768.065l-2.8-2.237a.559.559,0,0,1,.7-.874L6.366,8.739,10.487,4.1a.559.559,0,0,1,.836.744Z" fill="#e58b2a"/>
    </g>
  </g>
</svg>
