<svg id="Group_52" data-name="Group 52" xmlns="http://www.w3.org/2000/svg" width="59" height="56" viewBox="0 0 59 56">
  <rect id="Rectangle_38" data-name="Rectangle 38" width="59" height="56" rx="11" fill="rgba(229,139,42,0.13)"/>
  <g id="surface1" transform="translate(14.831 10.19)">
    <path id="Path_163" data-name="Path 163" d="M30.3,9.664V9.637c-.016-.342-.026-.7-.032-1.107a3.776,3.776,0,0,0-3.555-3.7A14.65,14.65,0,0,1,16.74.628L16.717.606a2.28,2.28,0,0,0-3.1,0L13.6.628a14.652,14.652,0,0,1-9.971,4.2A3.775,3.775,0,0,0,.069,8.53c-.006.4-.017.762-.032,1.107l0,.064c-.08,4.177-.179,9.374,1.56,14.092a17.939,17.939,0,0,0,4.3,6.7,22.513,22.513,0,0,0,8.422,4.982,2.608,2.608,0,0,0,.345.094,2.549,2.549,0,0,0,1,0,2.617,2.617,0,0,0,.347-.095,22.528,22.528,0,0,0,8.413-4.984,17.964,17.964,0,0,0,4.3-6.705C30.478,19.056,30.379,13.849,30.3,9.664Zm-3.529,13.4c-1.834,4.973-5.578,8.387-11.445,10.439a.525.525,0,0,1-.066.018.469.469,0,0,1-.184,0,.52.52,0,0,1-.066-.018C9.136,31.457,5.39,28.043,3.558,23.071c-1.6-4.349-1.512-9.12-1.432-13.33V9.718c.016-.362.027-.741.033-1.157A1.678,1.678,0,0,1,3.741,6.918,18.34,18.34,0,0,0,9.966,5.549a16.286,16.286,0,0,0,5.073-3.408.193.193,0,0,1,.259,0A16.292,16.292,0,0,0,20.37,5.549,18.341,18.341,0,0,0,26.6,6.918a1.678,1.678,0,0,1,1.581,1.643c.006.419.017.8.033,1.157C28.29,13.932,28.379,18.707,26.771,23.065Zm0,0" fill="#e58b2a"/>
    <path id="Path_164" data-name="Path 164" d="M99.276,128.41a8.878,8.878,0,1,0,8.878,8.878A8.888,8.888,0,0,0,99.276,128.41Zm0,15.665a6.788,6.788,0,1,1,6.787-6.788A6.8,6.8,0,0,1,99.276,144.075Zm0,0" transform="translate(-84.109 -119.477)" fill="#e58b2a"/>
    <path id="Path_165" data-name="Path 165" d="M160.7,212.3l-4.124,4.123-1.119-1.119a1.045,1.045,0,0,0-1.478,1.478l1.858,1.858a1.045,1.045,0,0,0,1.478,0l4.863-4.863A1.045,1.045,0,0,0,160.7,212.3Zm0,0" transform="translate(-142.981 -197.242)" fill="#e58b2a"/>
  </g>
</svg>
