<svg id="Group_54" data-name="Group 54" xmlns="http://www.w3.org/2000/svg" width="59" height="55" viewBox="0 0 59 55">
  <rect id="Rectangle_38" data-name="Rectangle 38" width="59" height="55" rx="11" fill="rgba(229,139,42,0.13)"/>
  <g id="electronics" transform="translate(10.464 10.39)">
    <path id="Path_133" data-name="Path 133" d="M35.22,0H1.854A1.854,1.854,0,0,0,0,1.854V24.1a1.854,1.854,0,0,0,1.854,1.854H16.63L16.065,32.7a.618.618,0,0,0,.618.669H20.39a.618.618,0,0,0,.618-.669l-.565-6.745H35.22A1.854,1.854,0,0,0,37.073,24.1V1.854A1.854,1.854,0,0,0,35.22,0ZM1.854,1.236H35.22a.618.618,0,0,1,.618.618V21.008H1.236V1.854A.618.618,0,0,1,1.854,1.236ZM19.719,32.13H17.355l.515-6.179H19.2Zm15.5-7.415H1.854a.618.618,0,0,1-.618-.618V22.244h34.6V24.1A.618.618,0,0,1,35.22,24.715Zm0,0" fill="#e58b2a"/>
    <path id="Path_134" data-name="Path 134" d="M225.854,296h-1.236a.618.618,0,1,0,0,1.236h1.236a.618.618,0,1,0,0-1.236Zm0,0" transform="translate(-206.699 -273.138)" fill="#e58b2a"/>
    <path id="Path_135" data-name="Path 135" d="M312,96h8.65v1.236H312Zm0,0" transform="translate(-287.902 -88.585)" fill="#e58b2a"/>
    <path id="Path_136" data-name="Path 136" d="M272,96h2.472v1.236H272Zm0,0" transform="translate(-250.992 -88.585)" fill="#e58b2a"/>
    <path id="Path_137" data-name="Path 137" d="M248,96h1.236v1.236H248Zm0,0" transform="translate(-228.846 -88.585)" fill="#e58b2a"/>
    <path id="Path_138" data-name="Path 138" d="M304,120h9.268v1.236H304Zm0,0" transform="translate(-280.52 -110.732)" fill="#e58b2a"/>
    <path id="Path_139" data-name="Path 139" d="M248,120h3.707v1.236H248Zm0,0" transform="translate(-228.846 -110.732)" fill="#e58b2a"/>
    <path id="Path_140" data-name="Path 140" d="M248,144h3.707v1.236H248Zm0,0" transform="translate(-228.846 -132.878)" fill="#e58b2a"/>
    <path id="Path_141" data-name="Path 141" d="M304,144h2.472v1.236H304Zm0,0" transform="translate(-280.52 -132.878)" fill="#e58b2a"/>
    <path id="Path_142" data-name="Path 142" d="M344,144h6.179v1.236H344Zm0,0" transform="translate(-317.431 -132.878)" fill="#e58b2a"/>
    <path id="Path_143" data-name="Path 143" d="M248,168h13.594v1.236H248Zm0,0" transform="translate(-228.846 -155.024)" fill="#e58b2a"/>
    <path id="Path_144" data-name="Path 144" d="M38.179,44.358A6.179,6.179,0,1,0,32,38.179,6.179,6.179,0,0,0,38.179,44.358Zm0-11.122a4.943,4.943,0,1,1-4.943,4.943A4.943,4.943,0,0,1,38.179,33.236Zm0,0" transform="translate(-29.528 -29.528)" fill="#e58b2a"/>
    <path id="Path_145" data-name="Path 145" d="M72.618,63.971h4.943a.618.618,0,0,0,.618-.618v-.618a3.089,3.089,0,0,0-1.364-2.561,2.472,2.472,0,1,0-3.451,0A3.089,3.089,0,0,0,72,62.735v.618A.618.618,0,0,0,72.618,63.971Zm1.236-5.561a1.236,1.236,0,1,1,1.236,1.236A1.236,1.236,0,0,1,73.854,58.41Zm1.236,2.472a1.854,1.854,0,0,1,1.854,1.854H73.236A1.854,1.854,0,0,1,75.089,60.882Zm0,0" transform="translate(-66.439 -51.613)" fill="#e58b2a"/>
    <path id="Path_146" data-name="Path 146" d="M32,208h4.943v1.236H32Zm0,0" transform="translate(-29.528 -191.935)" fill="#e58b2a"/>
    <path id="Path_147" data-name="Path 147" d="M104,208h2.472v1.236H104Zm0,0" transform="translate(-95.967 -191.935)" fill="#e58b2a"/>
    <path id="Path_148" data-name="Path 148" d="M144,208h3.707v1.236H144Zm0,0" transform="translate(-132.878 -191.935)" fill="#e58b2a"/>
    <path id="Path_149" data-name="Path 149" d="M57.236,240.618a.618.618,0,1,1-.618-.618A.618.618,0,0,1,57.236,240.618Zm0,0" transform="translate(-51.675 -221.463)" fill="#e58b2a"/>
    <path id="Path_150" data-name="Path 150" d="M104.618,240a.618.618,0,0,0,0,1.236H110.8a.618.618,0,1,0,0-1.236Zm0,0" transform="translate(-95.967 -221.463)" fill="#e58b2a"/>
    <path id="Path_151" data-name="Path 151" d="M25.236,240.618a.618.618,0,1,1-.618-.618A.618.618,0,0,1,25.236,240.618Zm0,0" transform="translate(-22.146 -221.463)" fill="#e58b2a"/>
    <path id="Path_152" data-name="Path 152" d="M226.4,436.35v.006c-1.118.13-2.348.21-3.645.247-.828.025-1.631.031-2.441.019H220.3a.621.621,0,0,0-.618.605.632.632,0,0,0,.173.439.649.649,0,0,0,.432.192c.291.006.606.006.964.006.513,0,1.026-.006,1.539-.025,1.334-.037,2.6-.124,3.75-.259a.6.6,0,0,0,.413-.229.605.605,0,0,0,.13-.457.618.618,0,0,0-.685-.544Zm0,0" transform="translate(-202.713 -402.644)" fill="#e58b2a"/>
    <path id="Path_153" data-name="Path 153" d="M107.522,402.461a9.287,9.287,0,0,1-1.9-.537,2.159,2.159,0,0,1-.272-.148,6.582,6.582,0,0,1,1.946-.636.618.618,0,0,0-.247-1.211,6.591,6.591,0,0,0-2.552.939c-.012.006-.018.019-.025.019a1.151,1.151,0,0,0-.469.89c.056.754.618,1.026,1.112,1.273a9.919,9.919,0,0,0,2.174.624.673.673,0,0,0,.118.012.618.618,0,0,0,.118-1.223Zm0,0" transform="translate(-95.968 -369.028)" fill="#e58b2a"/>
    <path id="Path_154" data-name="Path 154" d="M278.929,394.3a10.843,10.843,0,0,0-2.526-.7,34.136,34.136,0,0,0-3.757-.42.618.618,0,0,0-.655.581.625.625,0,0,0,.58.655,33.112,33.112,0,0,1,3.615.4,10,10,0,0,1,2.23.6.616.616,0,0,0,.835-.772A.61.61,0,0,0,278.929,394.3Zm0,0" transform="translate(-250.982 -362.817)" fill="#e58b2a"/>
    <path id="Path_155" data-name="Path 155" d="M440,248h1.236v1.236H440Zm0,0" transform="translate(-406.016 -228.846)" fill="#e58b2a"/>
    <path id="Path_156" data-name="Path 156" d="M416,248h1.236v1.236H416Zm0,0" transform="translate(-383.87 -228.846)" fill="#e58b2a"/>
    <path id="Path_157" data-name="Path 157" d="M440,224h1.236v1.236H440Zm0,0" transform="translate(-406.016 -206.699)" fill="#e58b2a"/>
    <path id="Path_158" data-name="Path 158" d="M240.618,28.943h13.593a.618.618,0,0,0,.618-.618V24.618a.618.618,0,0,0-.618-.618H240.618a.618.618,0,0,0-.618.618v3.707A.618.618,0,0,0,240.618,28.943Zm.618-3.707h12.358v2.472H241.236Zm0,0" transform="translate(-221.463 -22.146)" fill="#e58b2a"/>
    <path id="Path_159" data-name="Path 159" d="M259.122,192h-10.5a.618.618,0,0,0-.618.618v3.707a.618.618,0,0,0,.618.618h10.5a.618.618,0,0,0,.618-.618v-3.707A.618.618,0,0,0,259.122,192Zm-.618,3.707h-9.268v-2.472H258.5Zm0,0" transform="translate(-228.846 -177.171)" fill="#e58b2a"/>
    <path id="Path_160" data-name="Path 160" d="M185.236,392.618a.618.618,0,1,1-.618-.618A.618.618,0,0,1,185.236,392.618Zm0,0" transform="translate(-169.789 -361.724)" fill="#e58b2a"/>
    <path id="Path_161" data-name="Path 161" d="M177.236,440.618a.618.618,0,1,1-.618-.618A.618.618,0,0,1,177.236,440.618Zm0,0" transform="translate(-162.407 -406.016)" fill="#e58b2a"/>
    <path id="Path_162" data-name="Path 162" d="M329.236,432.618a.618.618,0,1,1-.618-.618A.618.618,0,0,1,329.236,432.618Zm0,0" transform="translate(-302.667 -398.634)" fill="#e58b2a"/>
  </g>
</svg>
