<svg xmlns="http://www.w3.org/2000/svg" width="90" height="90" viewBox="0 0 90 90">
  <g id="Group_91" data-name="Group 91" transform="translate(-219.234 -1685.644)">
    <rect id="Rectangle_52" data-name="Rectangle 52" width="90" height="90" rx="17" transform="translate(219.234 1685.644)" fill="rgba(229,139,42,0.15)"/>
    <g id="presentation" transform="translate(239.281 1709.346)">
      <path id="Path_218" data-name="Path 218" d="M45.311,0H23.386a4.6,4.6,0,0,0-4.594,4.594V18.659l-4.071-2.024c-.137-.069-.277-.133-.418-.195a6.943,6.943,0,1,0-9.579.425A9.253,9.253,0,0,0,0,24.953v4.7a4.6,4.6,0,0,0,3.132,4.356V42.18a1.462,1.462,0,0,0,1.462,1.462h9.4a1.462,1.462,0,0,0,1.462-1.462V25.752l4.681,2.34a4.011,4.011,0,0,0,5.32-1.677H30.7L25.144,41.68a1.462,1.462,0,0,0,2.748,1l5.914-16.264h1.025l5.975,16.269a1.462,1.462,0,0,0,2.745-1.008l-5.6-15.261h7.365a4.594,4.594,0,0,0,4.594-4.594V4.594A4.594,4.594,0,0,0,45.311,0ZM5.273,11.641A4.019,4.019,0,1,1,9.292,15.66a4.024,4.024,0,0,1-4.019-4.019Zm17.681,13.21-.011.033a1.081,1.081,0,0,1-1.5.592c-2.78-1.391-6.8-3.4-6.8-3.4a1.463,1.463,0,0,0-2.115,1.308V40.718H6.056V32.783a1.462,1.462,0,0,0-1.462-1.462,1.672,1.672,0,0,1-1.67-1.67v-4.7a6.369,6.369,0,0,1,6.368-6.368h1.292a6.371,6.371,0,0,1,2.834.667s7.252,3.606,9.1,4.526a.877.877,0,0,1,.438,1.074Zm24.027-3.031A1.658,1.658,0,0,1,46.493,23a1.681,1.681,0,0,1-1.181.489H25.771c0-.008,0-.016-.007-.024l3.629-7.257A1.462,1.462,0,0,0,26.777,14.9l-3.095,6.189-1.966-.979V4.594a1.672,1.672,0,0,1,1.67-1.67H45.311a1.68,1.68,0,0,1,1.182.49,1.657,1.657,0,0,1,.488,1.18Zm0,0" transform="translate(0.001 0)" fill="#e58b2a"/>
      <path id="Path_219" data-name="Path 219" d="M274.189,64.266H258.528a1.462,1.462,0,1,0,0,2.924h15.661a1.462,1.462,0,1,0,0-2.924Zm0,0" transform="translate(-232.009 -58.001)" fill="#e58b2a"/>
      <path id="Path_220" data-name="Path 220" d="M346.691,120.5H338.86a1.462,1.462,0,1,0,0,2.924h7.831a1.462,1.462,0,0,0,0-2.924Zm0,0" transform="translate(-304.511 -108.755)" fill="#e58b2a"/>
      <path id="Path_221" data-name="Path 221" d="M346.691,176.734H338.86a1.462,1.462,0,1,0,0,2.924h7.831a1.462,1.462,0,0,0,0-2.924Zm0,0" transform="translate(-304.511 -159.507)" fill="#e58b2a"/>
    </g>
  </g>
</svg>
