<svg xmlns="http://www.w3.org/2000/svg" width="59" height="53" viewBox="0 0 59 53">
  <g id="Group_61" data-name="Group 61" transform="translate(-357.955 -1379.248)">
    <rect id="Rectangle_38" data-name="Rectangle 38" width="59" height="53" rx="11" transform="translate(357.955 1379.248)" fill="rgba(229,139,42,0.13)"/>
    <g id="diamond" transform="translate(370.177 1389.418)">
      <g id="Group_63" data-name="Group 63" transform="translate(0 5.663)">
        <g id="Group_62" data-name="Group 62" transform="translate(0)">
          <path id="Path_124" data-name="Path 124" d="M33.447,94.52l-5.373-8.194a.655.655,0,0,0-.548-.3H6.054a.655.655,0,0,0-.547.295L.125,94.494a.655.655,0,0,0,.037.817L2.89,98.425a.655.655,0,1,0,.986-.863L2.1,95.534h8.815l4.429,15.122-5.005-5.715a.655.655,0,1,0-.986.863l6.933,7.916a.655.655,0,0,0,.986,0l7.381-8.43a.655.655,0,0,0-.986-.863l-5.453,6.228,4.429-15.121h8.811l-4.075,4.654a.655.655,0,1,0,.986.863l5.027-5.741A.655.655,0,0,0,33.447,94.52Zm-31.574-.3,4.18-6.345,4.161,6.345Zm5.395-6.883h8.3l-4.149,6.327Zm9.512.54,4.16,6.343h-8.32Zm0,23.012-4.5-15.358h9Zm5.373-17.208-4.16-6.343h8.32Zm1.213.54,4.16-6.343,4.16,6.343Z" transform="translate(0 -86.03)" fill="#e58b2a"/>
        </g>
      </g>
      <g id="Group_65" data-name="Group 65" transform="translate(2.204 17.736)">
        <g id="Group_64" data-name="Group 64">
          <path id="Path_125" data-name="Path 125" d="M41.733,273.961a3.069,3.069,0,0,1-3.066-3.066.655.655,0,0,0-1.311,0,3.069,3.069,0,0,1-3.066,3.066.655.655,0,1,0,0,1.311,3.069,3.069,0,0,1,3.066,3.066.655.655,0,0,0,1.311,0,3.069,3.069,0,0,1,3.066-3.066.655.655,0,1,0,0-1.311Zm-3.721,2.075a4.411,4.411,0,0,0-1.42-1.42,4.41,4.41,0,0,0,1.42-1.42,4.411,4.411,0,0,0,1.42,1.42A4.411,4.411,0,0,0,38.012,276.036Z" transform="translate(-33.636 -270.24)" fill="#e58b2a"/>
        </g>
      </g>
      <g id="Group_67" data-name="Group 67" transform="translate(27.001 0.027)">
        <g id="Group_66" data-name="Group 66" transform="translate(0 0)">
          <path id="Path_126" data-name="Path 126" d="M417.908,2.648A1.968,1.968,0,0,1,415.942.682a.655.655,0,0,0-1.311,0,1.968,1.968,0,0,1-1.966,1.966.655.655,0,0,0,0,1.311,1.968,1.968,0,0,1,1.966,1.966.655.655,0,0,0,1.311,0,1.968,1.968,0,0,1,1.966-1.966.655.655,0,1,0,0-1.311Zm-2.621,1.313a3.3,3.3,0,0,0-.657-.657,3.3,3.3,0,0,0,.657-.657,3.306,3.306,0,0,0,.657.657A3.3,3.3,0,0,0,415.286,3.961Z" transform="translate(-412.01 -0.027)" fill="#e58b2a"/>
        </g>
      </g>
      <g id="Group_69" data-name="Group 69" transform="translate(25.278 21.812)">
        <g id="Group_68" data-name="Group 68">
          <path id="Path_127" data-name="Path 127" d="M386.834,332.633a.655.655,0,1,0,.192.463A.657.657,0,0,0,386.834,332.633Z" transform="translate(-385.716 -332.441)" fill="#e58b2a"/>
        </g>
      </g>
    </g>
  </g>
</svg>
