<svg id="Group_91" data-name="Group 91" xmlns="http://www.w3.org/2000/svg" width="80" height="77" viewBox="0 0 80 77">
  <rect id="Rectangle_52" data-name="Rectangle 52" width="80" height="77" rx="17" fill="rgba(229,139,42,0.15)"/>
  <g id="prioritize" transform="translate(14.947 13.948)">
    <path id="Path_233" data-name="Path 233" d="M224.747,31.864a.888.888,0,0,0-.825-.553h0a.889.889,0,0,0-.824.554l-.006.016-2.613,6.861a.734.734,0,1,0,1.372.522l.471-1.236H225.5l.466,1.234a.734.734,0,1,0,1.373-.518l-2.589-6.861Zm-1.868,4.7,1.041-2.733,1.031,2.733Z" transform="translate(-198.857 -28.247)" fill="#e58b2a"/>
    <path id="Path_234" data-name="Path 234" d="M227.535,212.947a.734.734,0,0,0-.734.734v6.959a.734.734,0,0,0,.734.734h0s1.859-.008,2.371-.008a2.606,2.606,0,0,0,1.536-4.712,2.334,2.334,0,0,0-1.889-3.707Zm2.374,6.951-1.641.005v-2.281l.557,0h1.084a1.139,1.139,0,1,1,0,2.278Zm.514-4.616a.868.868,0,0,1-.867.867l-.734,0h-.554v-1.737h1.287A.868.868,0,0,1,230.424,215.282Z" transform="translate(-204.605 -192.107)" fill="#e58b2a"/>
    <path id="Path_235" data-name="Path 235" d="M223.739,396.051a2.731,2.731,0,0,1,1.535.469.734.734,0,1,0,.822-1.216,4.214,4.214,0,1,0-2.356,7.707,3.471,3.471,0,0,0,2.754-1.245.734.734,0,0,0-1.124-.943,2.007,2.007,0,0,1-1.63.72,2.746,2.746,0,0,1,0-5.491Z" transform="translate(-198.041 -355.968)" fill="#e58b2a"/>
    <path id="Path_236" data-name="Path 236" d="M47.288,9.362a9.559,9.559,0,0,0-6.8-2.818h-5.6V3.876A3.881,3.881,0,0,0,31.006,0H29.268a.734.734,0,1,0,0,1.468h1.738a2.411,2.411,0,0,1,2.408,2.408v6.8a2.411,2.411,0,0,1-2.408,2.408H19.1a2.411,2.411,0,0,1-2.408-2.408v-6.8A2.411,2.411,0,0,1,19.1,1.468h7.231a.734.734,0,1,0,0-1.468H19.1a3.881,3.881,0,0,0-3.876,3.876v6.8A3.881,3.881,0,0,0,19.1,14.555h5.218v3.221H19.1a3.881,3.881,0,0,0-3.876,3.876v2.667h-5.6a9.622,9.622,0,0,0,0,19.244h2.433l-1.26,1.26a.734.734,0,0,0,1.038,1.038l2.513-2.513a.734.734,0,0,0,0-1.038L11.832,39.8a.734.734,0,1,0-1.038,1.038l1.26,1.26H9.622a8.154,8.154,0,1,1,0-16.308h5.6v2.667A3.881,3.881,0,0,0,19.1,32.331h5.218v3.221H19.1a3.863,3.863,0,0,0-3.453,2.113.734.734,0,0,0,1.307.669A2.4,2.4,0,0,1,19.1,37.02H31.006a2.411,2.411,0,0,1,2.408,2.407v6.8a2.411,2.411,0,0,1-2.408,2.408H19.1a2.411,2.411,0,0,1-2.408-2.408V40.9a.734.734,0,0,0-1.468,0V46.23A3.881,3.881,0,0,0,19.1,50.106H31.006a3.881,3.881,0,0,0,3.876-3.876v-6.8a3.88,3.88,0,0,0-3.876-3.875H25.787V32.331h5.219a3.881,3.881,0,0,0,3.876-3.876v-6.8a3.881,3.881,0,0,0-3.876-3.876H25.787V14.555h5.219a3.881,3.881,0,0,0,3.876-3.876V8.011h5.6a8.154,8.154,0,1,1,0,16.308H38.052l1.26-1.26a.734.734,0,1,0-1.038-1.038l-2.513,2.513a.734.734,0,0,0,0,1.038l2.513,2.513a.734.734,0,0,0,1.038-1.038l-1.26-1.26h2.433a9.622,9.622,0,0,0,6.8-16.426ZM33.414,21.652v6.8a2.411,2.411,0,0,1-2.408,2.408H19.1a2.411,2.411,0,0,1-2.408-2.408v-6.8A2.411,2.411,0,0,1,19.1,19.244H31.006a2.411,2.411,0,0,1,2.408,2.408Z" transform="translate(0)" fill="#e58b2a"/>
  </g>
</svg>
