<svg xmlns="http://www.w3.org/2000/svg" width="66.34" height="25.345" viewBox="0 0 66.34 25.345">
  <g id="youtube" transform="translate(-20.835 -14.592)">
    <g id="Group_45" data-name="Group 45" transform="translate(20.835 14.592)">
      <path id="Path_115" data-name="Path 115" d="M80,221.062a4.612,4.612,0,0,0-3.93-3.585q-4.519-.491-13.63-.491t-13.606.491a4.457,4.457,0,0,0-2.53,1.154,4.665,4.665,0,0,0-1.425,2.431,42.563,42.563,0,0,0-.639,8.6,41.685,41.685,0,0,0,.639,8.6,4.49,4.49,0,0,0,1.413,2.431,4.353,4.353,0,0,0,2.517,1.13,131.319,131.319,0,0,0,13.631.516,131.3,131.3,0,0,0,13.63-.516,4.3,4.3,0,0,0,2.505-1.13A4.66,4.66,0,0,0,80,238.254a42.56,42.56,0,0,0,.639-8.6A41.708,41.708,0,0,0,80,221.062Zm-25.369,2.481H52.007v13.974H49.551V223.543H46.972v-2.308h7.662v2.308Zm6.631,13.974H59.079V236.19a3.6,3.6,0,0,1-2.505,1.5,1.323,1.323,0,0,1-1.424-.909,6.078,6.078,0,0,1-.2-1.793v-9.6h2.186v8.939a6.781,6.781,0,0,0,.025.86q.074.516.516.516.663,0,1.4-1.031v-9.283h2.186v12.132Zm8.35-3.635a9.073,9.073,0,0,1-.22,2.457,1.7,1.7,0,0,1-1.744,1.35,3.049,3.049,0,0,1-2.284-1.35v1.179H63.181V221.235h2.185v5.329a2.96,2.96,0,0,1,2.284-1.326,1.706,1.706,0,0,1,1.744,1.375,8.773,8.773,0,0,1,.22,2.431Zm8.3-2.014h-4.4v2.137q0,1.695,1.13,1.694a.94.94,0,0,0,.982-.884,12.237,12.237,0,0,0,.049-1.5h2.235v.319a10.877,10.877,0,0,1-.049,1.425,3.04,3.04,0,0,1-3.169,2.628,3.154,3.154,0,0,1-2.652-1.252,4.615,4.615,0,0,1-.712-2.849v-4.249a4.741,4.741,0,0,1,.687-2.849,3.358,3.358,0,0,1,5.232,0,4.87,4.87,0,0,1,.663,2.849v2.53Z" transform="translate(-14.302 -216.986)" fill="#fff"/>
      <path id="Path_116" data-name="Path 116" d="M290.892,336.043a1.578,1.578,0,0,0-1.105.54v7.392a1.576,1.576,0,0,0,1.105.54q.957,0,.958-1.646v-5.181Q291.85,336.043,290.892,336.043Z" transform="translate(-238.723 -325.802)" fill="#fff"/>
      <path id="Path_117" data-name="Path 117" d="M385.686,336.043q-1.105,0-1.105,1.67v1.13h2.21v-1.13Q386.791,336.043,385.686,336.043Z" transform="translate(-325.363 -325.802)" fill="#fff"/>
      <path id="Path_118" data-name="Path 118" d="M115.592,9.8v6.656h2.456V9.8L121.018,0h-2.5l-1.67,6.459L115.1,0h-2.6q.688,2.063,1.6,4.593A41.625,41.625,0,0,1,115.592,9.8Z" transform="translate(-112.497 4.359)" fill="#fff"/>
      <path id="Path_119" data-name="Path 119" d="M215.114,59.682a3.021,3.021,0,0,0,2.6-1.253,4.839,4.839,0,0,0,.688-2.9v-4.3a4.793,4.793,0,0,0-.688-2.874,3.306,3.306,0,0,0-5.182,0,4.791,4.791,0,0,0-.687,2.874v4.3a4.908,4.908,0,0,0,.687,2.9A3.037,3.037,0,0,0,215.114,59.682Zm-1.056-8.891q0-1.695,1.056-1.695t1.056,1.695v5.157q0,1.72-1.056,1.719t-1.056-1.719Z" transform="translate(-203.302 -38.697)" fill="#fff"/>
      <path id="Path_120" data-name="Path 120" d="M310.844,61.249a3.534,3.534,0,0,0,2.53-1.523v1.351h2.235V48.822h-2.235v9.357q-.737,1.056-1.4,1.056-.442,0-.516-.54a6.4,6.4,0,0,1-.025-.86V48.822H309.2V58.5a6.313,6.313,0,0,0,.2,1.842A1.365,1.365,0,0,0,310.844,61.249Z" transform="translate(-292.278 -40.264)" fill="#fff"/>
    </g>
  </g>
</svg>
